<?xml version="1.0" standalone="no"?>
<!DOCTYPE svg PUBLIC "-//W3C//DTD SVG 20010904//EN"
 "http://www.w3.org/TR/2001/REC-SVG-20010904/DTD/svg10.dtd">
<svg version="1.0" xmlns="http://www.w3.org/2000/svg"
 width="1055.000000pt" height="1136.000000pt" viewBox="0 0 1055.000000 1136.000000"
 preserveAspectRatio="xMidYMid meet">

<g transform="translate(0.000000,1136.000000) scale(0.100000,-0.100000)"
fill="#000000" stroke="none">
<path d="M5115 10449 c-701 -69 -1276 -614 -1386 -1314 -19 -122 -17 -391 5
-505 60 -316 210 -606 425 -820 58 -58 134 -126 168 -152 l62 -46 -87 -32
c-218 -82 -524 -258 -722 -416 -109 -87 -327 -305 -414 -414 -356 -448 -561
-987 -592 -1562 l-7 -128 209 0 210 0 12 163 c40 532 260 1028 625 1407 124
129 249 234 387 325 925 615 2131 480 2907 -325 107 -111 170 -190 259 -325
211 -321 337 -693 366 -1082 l12 -163 210 0 209 0 -7 128 c-31 575 -236 1114
-592 1562 -87 109 -305 327 -414 414 -198 158 -504 334 -722 416 l-87 32 62
46 c34 26 110 94 168 152 215 214 365 504 425 820 22 114 24 383 5 505 -90
573 -494 1053 -1041 1238 -218 74 -430 99 -655 76z m320 -424 c317 -45 609
-232 790 -505 184 -279 232 -643 129 -971 -82 -259 -277 -500 -519 -638 -522
-299 -1191 -137 -1520 369 -244 375 -244 870 0 1240 248 374 678 568 1120 505z"/>
<path d="M1465 3058 c-32 -11 -81 -52 -96 -80 -17 -32 -409 -1638 -409 -1677
0 -98 145 -108 193 -14 8 15 33 116 56 223 23 107 46 205 51 218 10 22 10 22
249 22 161 0 242 -4 247 -11 3 -6 28 -107 54 -224 28 -124 56 -225 67 -239 62
-86 193 -66 193 28 0 44 -372 1571 -402 1651 -18 48 -66 92 -114 104 -50 13
-50 13 -89 -1z m148 -645 c53 -247 97 -456 97 -465 0 -17 -16 -18 -200 -18
-188 0 -200 1 -200 19 0 10 22 119 49 242 27 123 71 324 97 447 27 122 51 222
54 222 3 0 49 -201 103 -447z"/>
<path d="M8883 2936 l-28 -24 -5 -209 -5 -208 -96 -5 c-103 -5 -131 -18 -150
-68 -12 -30 12 -86 43 -103 12 -7 64 -15 113 -18 l90 -6 5 -435 c4 -269 10
-447 17 -465 46 -131 106 -175 267 -195 88 -11 260 1 297 20 49 27 68 112 33
151 -17 20 -25 21 -89 13 -185 -23 -262 -4 -300 71 -19 38 -20 60 -20 440 l0
400 198 5 199 5 29 33 c16 18 29 44 29 58 0 29 -24 69 -48 80 -9 5 -105 11
-212 14 l-195 5 -5 208 -5 209 -28 24 c-19 16 -40 24 -67 24 -27 0 -48 -8 -67
-24z"/>
<path d="M2711 2544 c-165 -44 -282 -167 -340 -358 -65 -211 -45 -548 41 -721
88 -176 243 -266 458 -267 200 -1 297 37 321 126 23 84 -25 118 -118 85 -36
-13 -95 -23 -156 -26 -94 -6 -99 -5 -162 26 -140 69 -205 217 -205 466 0 239
68 401 195 468 57 29 180 35 265 12 105 -29 133 -30 154 -6 38 42 12 137 -45
167 -82 42 -300 57 -408 28z"/>
<path d="M3971 2544 c-165 -44 -282 -167 -340 -358 -65 -211 -45 -548 41 -721
88 -176 243 -266 458 -267 200 -1 297 37 321 126 23 84 -25 118 -118 85 -36
-13 -95 -23 -156 -26 -94 -6 -99 -5 -162 26 -140 69 -205 217 -205 466 0 239
68 401 195 468 57 29 180 35 265 12 105 -29 133 -30 154 -6 38 42 12 137 -45
167 -82 42 -300 57 -408 28z"/>
<path d="M5124 2541 c-123 -35 -209 -111 -269 -236 -57 -119 -70 -202 -70
-435 0 -183 3 -214 23 -290 63 -229 194 -354 398 -380 284 -36 479 97 556 380
20 76 23 107 23 290 0 233 -13 316 -70 435 -61 127 -147 201 -273 237 -86 23
-234 23 -318 -1z m281 -187 c41 -19 90 -67 111 -107 70 -133 82 -492 23 -682
-24 -78 -92 -154 -156 -173 -52 -15 -144 -15 -196 0 -65 19 -132 95 -157 175
-32 105 -46 289 -32 436 17 183 50 269 126 328 62 49 203 61 281 23z"/>
<path d="M7786 2544 c-82 -26 -156 -77 -206 -146 l-27 -37 -6 54 c-7 69 -21
93 -64 111 -27 12 -42 13 -68 4 -68 -22 -65 5 -65 -652 1 -451 4 -597 13 -608
62 -79 165 -59 187 35 5 22 10 184 10 360 0 352 6 409 59 520 59 127 136 185
246 185 114 0 172 -42 201 -145 14 -50 17 -131 21 -504 l5 -445 28 -28 c48
-48 126 -33 155 29 15 31 16 84 12 491 -3 383 -7 467 -20 520 -39 148 -109
226 -231 258 -66 18 -188 17 -250 -2z"/>
<path d="M6132 2525 c-60 -26 -62 -40 -62 -467 1 -569 15 -672 109 -768 64
-65 137 -92 256 -92 143 -1 255 54 324 158 l31 47 0 -47 c0 -86 40 -136 108
-136 30 0 64 24 81 57 8 15 11 195 11 607 l0 584 -25 30 c-31 37 -76 47 -119
27 -61 -29 -60 -25 -67 -430 -5 -330 -8 -378 -26 -441 -39 -139 -119 -241
-207 -265 -74 -20 -167 3 -212 53 -46 51 -48 67 -54 565 l-5 473 -25 24 c-32
31 -76 39 -118 21z"/>
</g>
</svg>
