<?xml version="1.0" encoding="UTF-8" standalone="no"?><svg xmlns:svg="http://www.w3.org/2000/svg" xmlns="http://www.w3.org/2000/svg" version="1.1" style="overflow:visible" viewBox="-250 -250 500 500" height="500px" width="500px"><rect fill-opacity="0" fill="rgb(0,0,0)" height="500" width="500" y="-250" x="-250" /><svg version="1.1" y="-250" x="-250" viewBox="-250 -250 500 500" height="500px" width="500px" style="overflow:visible"><g transform="rotate(0,0,0)" stroke-linejoin="round" fill="#fff"><path stroke-linecap="round" stroke-linejoin="round" stroke-width="23" stroke-opacity="1" stroke="rgb(77,77,77)" fill="rgb(255,255,255)" d="m156 0a156 156 0 0 1-156 156a156 156 0 0 1-156-156a156 156 0 0 1 156-156a156 156 0 0 1 156 156z" /></g></svg><svg version="1.1" y="-246" x="-250" viewBox="-250 -250 500 500" height="500px" width="500px" style="overflow:visible"><g transform="rotate(0,0,0)" stroke-linejoin="round" fill="#fff"><path stroke-linecap="butt" stroke-linejoin="round" stroke-width="0" stroke-opacity="0" stroke="rgb(0,0,0)" fill="rgb(77,77,77)" d="m68.072-58.328a16.0016 16.0016 0 0 0-10.9856 4.87192l-72.7184 73.12l-41.518401-41.7488a16.0016 16.0016 0 1 0-22.6904 22.5656l52.864 53.156a16.0016 16.0016 0 0 0 22.6904 0l84.064-84.528a16.0016 16.0016 0 0 0-11.7048-27.436001z" /></g></svg></svg>