<?xml version="1.0" standalone="no"?>
<!DOCTYPE svg PUBLIC "-//W3C//DTD SVG 20010904//EN"
 "http://www.w3.org/TR/2001/REC-SVG-20010904/DTD/svg10.dtd">
<svg version="1.0" xmlns="http://www.w3.org/2000/svg"
 width="1377.000000pt" height="1799.000000pt" viewBox="0 0 1377.000000 1799.000000"
 preserveAspectRatio="xMidYMid meet">

<g transform="translate(0.000000,1799.000000) scale(0.100000,-0.100000)"
fill="#000000" stroke="none">
<path d="M6625 17169 c-438 -28 -946 -141 -1340 -298 -603 -241 -1122 -585
-1575 -1048 -498 -506 -886 -1153 -1085 -1808 -246 -810 -268 -1627 -65 -2435
125 -497 323 -945 615 -1385 590 -889 1502 -1557 2510 -1839 860 -241 1714
-231 2570 29 655 199 1302 587 1808 1085 626 614 1047 1363 1240 2205 137 597
151 1220 41 1814 -170 920 -607 1740 -1281 2401 -506 498 -1153 886 -1808
1085 -541 164 -1084 229 -1630 194z m465 -639 c390 -20 692 -77 1060 -199 376
-126 755 -323 1065 -556 783 -589 1300 -1409 1489 -2365 170 -858 29 -1778
-391 -2555 -594 -1098 -1669 -1838 -2909 -1999 -779 -102 -1610 53 -2309 431
-1098 594 -1838 1669 -1999 2909 -102 779 53 1610 431 2309 312 578 774 1076
1318 1422 563 359 1220 569 1875 602 85 4 160 9 165 9 6 1 98 -3 205 -8z"/>
<path d="M6640 15429 c-640 -71 -1065 -395 -1304 -996 -89 -223 -149 -563
-122 -692 16 -78 56 -142 117 -187 125 -91 291 -83 406 20 72 65 92 115 109
264 18 157 45 268 94 389 121 294 321 470 615 538 183 43 479 36 681 -15 302
-76 510 -263 569 -511 79 -334 -40 -660 -372 -1021 -54 -59 -183 -196 -286
-304 -261 -273 -374 -409 -469 -564 -134 -218 -193 -497 -136 -647 59 -158
250 -244 408 -184 109 42 179 126 200 241 7 36 17 89 22 119 24 128 128 271
408 556 255 260 343 355 442 478 251 310 394 614 437 930 16 115 13 325 -5
440 -66 414 -337 774 -729 970 -155 77 -324 129 -530 162 -120 19 -436 28
-555 14z"/>
<path d="M6714 10779 c-49 -14 -125 -69 -161 -117 -54 -72 -65 -129 -61 -320
3 -159 4 -170 31 -224 53 -107 146 -169 268 -176 111 -7 167 15 245 92 86 86
94 116 94 331 0 215 -8 245 -94 331 -43 42 -76 66 -110 77 -53 18 -160 21
-212 6z"/>
<path d="M3053 4984 c-18 -9 -45 -33 -60 -53 l-28 -36 0 -1421 0 -1421 29 -37
c28 -38 93 -75 130 -76 42 0 108 43 137 88 l29 46 0 677 c0 617 1 678 17 690
13 11 96 14 445 14 370 0 430 -2 438 -15 6 -9 10 -279 10 -681 l0 -665 25 -51
c28 -56 49 -73 113 -91 82 -24 179 32 202 117 7 27 9 478 8 1428 l-3 1389 -25
37 c-75 111 -245 96 -301 -27 -17 -38 -19 -75 -19 -583 0 -526 -1 -543 -19
-553 -13 -6 -169 -10 -440 -10 -368 0 -421 2 -435 16 -14 14 -16 79 -16 562
l0 547 -23 37 c-12 20 -35 47 -51 59 -38 30 -118 36 -163 13z"/>
<path d="M7290 4993 c-31 -11 -71 -58 -81 -95 -19 -71 16 -142 84 -167 17 -7
110 -11 226 -11 149 0 201 -3 209 -13 7 -8 12 -389 15 -1207 5 -1254 3 -1220
47 -1356 19 -60 67 -129 108 -156 89 -59 246 -87 480 -88 220 0 284 20 316
100 20 51 20 73 -1 117 -32 68 -53 73 -273 71 -238 -2 -270 6 -303 81 -32 73
-36 216 -36 1424 -1 1220 2 1146 -58 1225 -14 19 -49 45 -77 58 -50 23 -55 24
-346 23 -162 0 -302 -3 -310 -6z"/>
<path d="M5694 4150 c-463 -83 -671 -460 -651 -1179 6 -227 23 -341 73 -499
79 -247 239 -430 442 -506 142 -52 195 -61 382 -60 148 0 195 4 305 26 146 30
190 46 222 80 52 55 73 172 40 222 -10 14 -34 30 -56 37 -34 10 -50 8 -142
-20 -154 -46 -240 -61 -347 -61 -167 0 -294 45 -389 139 -63 62 -95 115 -128
210 -37 110 -73 342 -57 368 6 9 138 13 532 15 l525 3 47 23 c26 13 63 41 82
62 60 66 66 122 41 346 -34 310 -110 500 -253 636 -63 60 -127 97 -237 135
-60 22 -91 26 -225 29 -85 1 -178 -1 -206 -6z m348 -309 c100 -43 182 -162
223 -325 28 -114 42 -280 25 -301 -11 -13 -78 -15 -451 -15 -507 0 -463 -11
-449 110 42 369 165 534 415 558 89 9 177 -1 237 -27z"/>
<path d="M9985 4136 c-38 -12 -86 -31 -105 -41 -88 -46 -197 -146 -258 -237
-41 -63 -52 -51 -52 56 0 80 -3 98 -23 127 -38 57 -84 81 -143 77 -55 -5 -90
-25 -123 -74 l-21 -30 0 -1435 0 -1435 29 -45 c37 -58 87 -84 149 -75 60 8
106 38 128 84 18 34 19 75 22 590 1 303 6 552 10 552 4 0 18 -20 31 -45 52
-99 180 -215 281 -256 208 -83 430 -58 618 70 149 101 254 276 312 521 38 159
50 283 50 507 0 572 -137 909 -425 1051 -132 65 -343 82 -480 38z m253 -319
c173 -70 263 -220 307 -511 18 -117 20 -427 4 -525 -55 -339 -187 -521 -407
-561 -78 -14 -162 1 -246 42 -146 73 -250 255 -290 510 -21 129 -21 398 0 520
51 306 186 497 387 549 54 14 182 2 245 -24z"/>
</g>
</svg>
