<?xml version="1.0" standalone="no"?>
<!DOCTYPE svg PUBLIC "-//W3C//DTD SVG 20010904//EN"
 "http://www.w3.org/TR/2001/REC-SVG-20010904/DTD/svg10.dtd">
<svg version="1.0" xmlns="http://www.w3.org/2000/svg"
 width="947.000000pt" height="1575.000000pt" viewBox="0 0 947.000000 1575.000000"
 preserveAspectRatio="xMidYMid meet">

<g transform="translate(0.000000,1575.000000) scale(0.100000,-0.100000)"
fill="#000000" stroke="none">
<path d="M4665 15377 c-22 -8 -56 -22 -75 -31 -19 -10 -342 -325 -717 -699
l-683 -682 0 144 c0 79 -5 161 -11 181 -20 67 -78 132 -148 168 l-64 32 -498
0 c-473 0 -501 -1 -551 -20 -65 -24 -128 -85 -160 -155 l-23 -50 -3 -885 -2
-885 -589 -590 c-324 -324 -597 -606 -608 -625 -28 -53 -26 -201 4 -256 61
-115 186 -176 313 -152 30 5 68 17 85 25 16 8 879 864 1917 1901 l1888 1887
1887 -1887 c1576 -1576 1896 -1891 1937 -1909 33 -14 69 -21 116 -21 119 -1
216 61 267 171 22 46 25 63 21 130 -3 52 -12 89 -26 116 -13 24 -823 843
-2019 2043 -1811 1814 -2003 2004 -2055 2028 -69 31 -148 39 -203 21z m-2055
-1730 l0 -262 -150 -150 -150 -150 0 413 0 412 150 0 150 0 0 -263z"/>
<path d="M4680 13936 c-30 -6 -71 -21 -90 -33 -19 -12 -780 -768 -1691 -1680
-1137 -1138 -1662 -1671 -1675 -1698 -18 -39 -19 -95 -19 -1980 l0 -1940 23
-46 c29 -59 79 -109 139 -140 l48 -24 1265 0 1265 0 49 25 c68 35 122 92 146
156 20 54 20 72 20 989 l0 935 580 0 580 0 0 -935 c0 -917 0 -935 20 -989 24
-64 78 -121 146 -156 l49 -25 1265 0 1265 0 48 24 c60 31 110 81 139 140 l23
46 0 1940 c0 1885 -1 1941 -19 1980 -23 49 -3309 3343 -3371 3380 -22 13 -58
26 -80 30 -22 4 -47 8 -55 10 -8 2 -40 -2 -70 -9z m1542 -2173 l1478 -1478 0
-1657 0 -1658 -900 0 -900 0 -2 948 -3 947 -23 43 c-35 66 -87 117 -145 143
l-52 24 -935 0 -935 0 -52 -24 c-58 -26 -110 -77 -145 -143 l-23 -43 -3 -947
-2 -948 -900 0 -900 0 0 1657 0 1658 1477 1477 c813 813 1480 1478 1483 1478
3 0 670 -665 1482 -1477z"/>
<path d="M895 3556 c-41 -18 -82 -68 -95 -114 -13 -49 -14 -2743 0 -2791 43
-153 221 -184 298 -52 l27 46 3 683 3 683 26 10 c16 6 182 9 440 7 397 -3 415
-4 429 -22 12 -17 14 -127 14 -689 0 -599 2 -673 16 -704 20 -40 64 -76 117
-93 74 -23 182 39 204 118 5 15 8 653 8 1418 l0 1390 -28 43 c-32 48 -91 80
-146 81 -47 0 -112 -33 -142 -72 l-24 -33 -5 -563 c-4 -486 -7 -564 -20 -572
-9 -6 -190 -10 -441 -10 -340 0 -429 3 -437 13 -8 9 -12 185 -14 563 -3 612 0
584 -73 640 -43 32 -114 41 -160 20z"/>
<path d="M3506 2720 c-230 -41 -416 -182 -519 -395 -171 -349 -183 -1002 -27
-1386 125 -308 376 -469 730 -469 356 0 605 161 731 471 73 179 104 379 104
664 -1 391 -68 659 -215 857 -79 106 -227 203 -372 245 -63 17 -357 27 -432
13z m303 -286 c58 -9 144 -57 196 -109 126 -126 177 -337 177 -730 0 -433 -66
-654 -226 -764 -138 -95 -392 -96 -529 -2 -142 98 -208 274 -227 609 -16 277
8 551 63 707 81 233 267 332 546 289z"/>
<path d="M5410 2709 c-75 -30 -183 -139 -234 -237 -20 -40 -42 -70 -47 -67 -5
4 -9 41 -9 84 0 137 -58 207 -164 198 -42 -4 -55 -10 -87 -44 -30 -33 -38 -51
-44 -94 -3 -30 -5 -472 -3 -984 3 -1038 -2 -964 73 -1021 70 -53 181 -33 231
43 21 31 21 43 27 555 7 625 20 785 89 1038 47 175 124 259 226 247 90 -10
135 -75 152 -222 6 -53 10 -392 10 -825 l0 -736 23 -44 c24 -50 88 -90 141
-90 47 0 113 37 138 78 l23 37 6 650 c6 667 10 737 49 883 60 220 166 312 297
257 56 -23 71 -42 95 -114 22 -65 23 -73 28 -871 l5 -805 23 -37 c25 -40 91
-78 137 -78 46 0 112 38 137 78 l23 37 0 820 c0 733 -2 830 -18 917 -22 125
-48 194 -94 247 -77 91 -173 126 -322 119 -83 -4 -105 -9 -161 -38 -78 -39
-159 -120 -215 -215 -22 -37 -44 -68 -48 -68 -5 -1 -17 22 -27 51 -39 109
-103 195 -178 240 -39 22 -60 27 -137 29 -73 3 -100 -1 -145 -18z"/>
<path d="M7735 2720 c-176 -26 -329 -110 -443 -244 -70 -81 -149 -266 -176
-406 -23 -116 -28 -161 -36 -304 -39 -728 160 -1137 616 -1263 91 -25 113 -28
279 -27 183 0 314 18 447 60 83 27 138 109 138 207 0 29 -7 46 -29 67 -43 43
-68 45 -173 15 -166 -49 -257 -65 -363 -65 -283 0 -457 133 -533 410 -24 84
-49 279 -39 303 5 15 60 16 529 19 507 3 524 4 568 24 50 23 103 73 127 119
13 24 15 55 10 180 -12 305 -83 543 -210 696 -88 106 -202 172 -357 205 -69
14 -269 17 -355 4z m325 -303 c95 -34 185 -144 226 -276 35 -110 61 -320 44
-352 -10 -18 -26 -19 -449 -19 -380 0 -440 2 -451 15 -18 21 3 198 36 313 44
152 99 232 197 286 117 65 275 78 397 33z"/>
</g>
</svg>
