<?xml version="1.0" standalone="no"?>
<!DOCTYPE svg PUBLIC "-//W3C//DTD SVG 20010904//EN"
 "http://www.w3.org/TR/2001/REC-SVG-20010904/DTD/svg10.dtd">
<svg version="1.0" xmlns="http://www.w3.org/2000/svg"
 width="852.000000pt" height="1135.000000pt" viewBox="0 0 852.000000 1135.000000"
 preserveAspectRatio="xMidYMid meet">

<g transform="translate(0.000000,1135.000000) scale(0.100000,-0.100000)"
fill="#000000" stroke="none">
<path d="M4310 10432 c-19 -11 -48 -36 -65 -56 -26 -32 -30 -46 -30 -95 0 -48
5 -64 28 -94 59 -78 -40 -72 1210 -75 l1117 -2 0 -2360 0 -2360 -1117 -2
c-1250 -3 -1151 3 -1210 -75 -23 -30 -28 -46 -28 -94 0 -49 4 -63 30 -95 17
-20 46 -45 65 -56 34 -18 81 -18 1262 -16 l1226 3 38 30 c20 17 45 46 55 65
18 34 19 120 19 2600 0 2480 -1 2566 -19 2600 -10 19 -35 48 -55 65 l-38 30
-1226 3 c-1181 2 -1228 2 -1262 -16z"/>
<path d="M4348 9091 c-98 -31 -147 -150 -100 -238 10 -18 217 -235 460 -483
l443 -450 -1758 -2 c-1652 -3 -1760 -4 -1790 -20 -112 -62 -121 -217 -16 -288
l37 -25 1765 -5 1766 -5 -449 -454 c-268 -271 -454 -467 -462 -487 -30 -72 -5
-160 57 -205 43 -30 115 -36 163 -14 44 21 1199 1187 1235 1247 29 48 32 118
8 164 -18 34 -1182 1219 -1224 1245 -35 22 -98 31 -135 20z"/>
<path d="M5452 3230 c-45 -28 -65 -79 -60 -152 3 -47 10 -64 33 -88 57 -59
149 -59 199 1 23 26 26 40 26 101 0 78 -16 115 -60 142 -38 22 -98 20 -138 -4z"/>
<path d="M1410 3173 c-40 -13 -60 -29 -75 -58 -13 -29 -15 -133 -15 -846 0
-795 0 -814 20 -853 41 -82 33 -81 400 -84 352 -3 359 -2 386 51 19 36 11 77
-22 108 -25 24 -27 24 -295 27 l-269 3 0 780 c0 684 -2 785 -15 814 -20 41
-77 71 -115 58z"/>
<path d="M2804 2651 c-123 -35 -209 -111 -269 -236 -57 -119 -70 -202 -70
-435 0 -183 3 -214 23 -290 63 -229 194 -354 398 -380 284 -36 479 97 556 380
20 76 23 107 23 290 0 233 -13 316 -70 435 -61 127 -147 201 -273 237 -86 23
-234 23 -318 -1z m281 -187 c41 -19 90 -67 111 -107 70 -133 82 -492 23 -682
-24 -78 -92 -154 -156 -173 -52 -15 -144 -15 -196 0 -65 19 -132 95 -157 175
-32 105 -46 289 -32 436 17 183 50 269 126 328 62 49 203 61 281 23z"/>
<path d="M4033 2656 c-145 -47 -230 -152 -285 -351 -19 -71 -22 -104 -22 -305
0 -199 2 -234 21 -301 42 -152 130 -277 229 -327 101 -50 248 -54 346 -9 57
26 129 92 156 141 14 27 17 28 20 11 2 -11 2 -85 -1 -165 -6 -193 -27 -261
-101 -336 -35 -35 -68 -57 -97 -66 -68 -20 -211 -15 -300 10 -98 28 -133 28
-153 0 -21 -30 -20 -61 4 -108 26 -50 57 -66 172 -86 123 -22 287 -15 377 16
160 54 240 147 288 335 16 64 18 130 18 772 l0 703 -27 27 c-39 38 -97 38
-135 1 -22 -22 -27 -39 -31 -88 l-4 -60 -58 63 c-36 39 -83 76 -122 97 -57 31
-72 34 -158 37 -61 2 -110 -2 -137 -11z m276 -205 c121 -62 191 -231 191 -461
0 -292 -105 -460 -289 -460 -124 0 -220 88 -260 237 -35 128 -30 378 9 504 40
130 126 199 247 199 43 0 76 -6 102 -19z"/>
<path d="M6726 2654 c-82 -26 -156 -77 -206 -146 l-27 -37 -6 54 c-7 69 -21
93 -64 111 -27 12 -42 13 -68 4 -68 -22 -65 5 -65 -652 1 -451 4 -597 13 -608
62 -79 165 -59 187 35 5 22 10 184 10 360 0 352 6 409 59 520 59 127 136 185
246 185 114 0 172 -42 201 -145 14 -50 17 -131 21 -504 l5 -445 28 -28 c48
-48 126 -33 155 29 15 31 16 84 12 491 -3 383 -7 467 -20 520 -39 148 -109
226 -231 258 -66 18 -188 17 -250 -2z"/>
<path d="M5230 2643 c-62 -23 -81 -103 -35 -148 22 -23 31 -25 122 -25 54 0
104 -4 111 -8 10 -7 12 -109 10 -478 l-3 -469 -148 -5 c-148 -5 -149 -5 -173
-33 -33 -39 -31 -81 5 -118 l29 -29 362 0 362 0 29 29 c36 37 38 79 5 118 -23
27 -28 28 -133 31 -67 3 -111 8 -115 15 -4 7 -8 240 -8 518 l0 506 -23 34
c-39 60 -73 69 -237 68 -80 0 -152 -3 -160 -6z"/>
<path d="M2127 3 c1173 -2 3093 -2 4265 0 1173 1 214 2 -2132 2 -2346 0 -3305
-1 -2133 -2z"/>
</g>
</svg>
