<?xml version="1.0" standalone="no"?>
<!DOCTYPE svg PUBLIC "-//W3C//DTD SVG 20010904//EN"
 "http://www.w3.org/TR/2001/REC-SVG-20010904/DTD/svg10.dtd">
<svg version="1.0" xmlns="http://www.w3.org/2000/svg"
 width="979.000000pt" height="1134.000000pt" viewBox="0 0 979.000000 1134.000000"
 preserveAspectRatio="xMidYMid meet">

<g transform="translate(0.000000,1134.000000) scale(0.100000,-0.100000)"
fill="#000000" stroke="none">
<path d="M2350 10238 c-31 -16 -51 -36 -67 -67 l-23 -44 0 -2476 0 -2477 23
-44 c15 -31 35 -51 66 -67 l44 -23 1170 0 1171 0 44 21 c134 66 112 258 -35
298 -25 7 -388 11 -1095 11 l-1058 0 0 2280 0 2280 1058 0 c707 0 1070 4 1095
11 50 13 103 61 118 106 24 73 -15 162 -85 194 -39 18 -92 19 -1211 19 l-1171
0 -44 -22z"/>
<path d="M6114 8931 c-68 -41 -98 -122 -74 -196 9 -27 123 -149 448 -478 l437
-442 -1705 -5 -1705 -5 -35 -22 c-105 -66 -98 -220 13 -281 30 -16 145 -17
1729 -22 l1698 -5 -430 -437 c-424 -430 -460 -472 -460 -532 0 -112 122 -192
226 -148 42 18 1184 1176 1207 1224 21 45 21 83 -1 130 -20 43 -1148 1193
-1196 1220 -42 23 -113 23 -152 -1z"/>
<path d="M1440 3043 c-40 -13 -60 -29 -75 -58 -13 -29 -15 -133 -15 -846 0
-795 0 -814 20 -853 41 -82 33 -81 400 -84 352 -3 359 -2 386 51 19 36 11 77
-22 108 -25 24 -27 24 -295 27 l-269 3 0 780 c0 684 -2 785 -15 814 -20 41
-77 71 -115 58z"/>
<path d="M7853 2916 l-28 -24 -5 -209 -5 -208 -96 -5 c-103 -5 -131 -18 -150
-68 -12 -30 12 -86 43 -103 12 -7 64 -15 113 -18 l90 -6 5 -435 c4 -269 10
-447 17 -465 46 -131 106 -175 267 -195 88 -11 260 1 297 20 49 27 68 112 33
151 -17 20 -25 21 -89 13 -185 -23 -262 -4 -300 71 -19 38 -20 60 -20 440 l0
400 198 5 199 5 29 33 c16 18 29 44 29 58 0 29 -24 69 -48 80 -9 5 -105 11
-212 14 l-195 5 -5 208 -5 209 -28 24 c-19 16 -40 24 -67 24 -27 0 -48 -8 -67
-24z"/>
<path d="M2834 2521 c-123 -35 -209 -111 -269 -236 -57 -119 -70 -202 -70
-435 0 -183 3 -214 23 -290 63 -229 194 -354 398 -380 284 -36 479 97 556 380
20 76 23 107 23 290 0 233 -13 316 -70 435 -61 127 -147 201 -273 237 -86 23
-234 23 -318 -1z m281 -187 c41 -19 90 -67 111 -107 70 -133 82 -492 23 -682
-24 -78 -92 -154 -156 -173 -52 -15 -144 -15 -196 0 -65 19 -132 95 -157 175
-32 105 -46 289 -32 436 17 183 50 269 126 328 62 49 203 61 281 23z"/>
<path d="M4063 2526 c-145 -47 -230 -152 -285 -351 -19 -71 -22 -104 -22 -305
0 -199 2 -234 21 -301 42 -152 130 -277 229 -327 101 -50 248 -54 346 -9 57
26 129 92 156 141 14 27 17 28 20 11 2 -11 2 -85 -1 -165 -6 -193 -27 -261
-101 -336 -35 -35 -68 -57 -97 -66 -68 -20 -211 -15 -300 10 -98 28 -133 28
-153 0 -21 -30 -20 -61 4 -108 26 -50 57 -66 172 -86 123 -22 287 -15 377 16
160 54 240 147 288 335 16 64 18 130 18 772 l0 703 -27 27 c-39 38 -97 38
-135 1 -22 -22 -27 -39 -31 -88 l-4 -60 -58 63 c-36 39 -83 76 -122 97 -57 31
-72 34 -158 37 -61 2 -110 -2 -137 -11z m276 -205 c121 -62 191 -231 191 -461
0 -292 -105 -460 -289 -460 -124 0 -220 88 -260 237 -35 128 -30 378 9 504 40
130 126 199 247 199 43 0 76 -6 102 -19z"/>
<path d="M5354 2521 c-123 -35 -209 -111 -269 -236 -57 -119 -70 -202 -70
-435 0 -183 3 -214 23 -290 63 -229 194 -354 398 -380 284 -36 479 97 556 380
20 76 23 107 23 290 0 233 -13 316 -70 435 -61 127 -147 201 -273 237 -86 23
-234 23 -318 -1z m281 -187 c41 -19 90 -67 111 -107 70 -133 82 -492 23 -682
-24 -78 -92 -154 -156 -173 -52 -15 -144 -15 -196 0 -65 19 -132 95 -157 175
-32 105 -46 289 -32 436 17 183 50 269 126 328 62 49 203 61 281 23z"/>
<path d="M6362 2505 c-60 -26 -62 -40 -62 -467 1 -569 15 -672 109 -768 64
-65 137 -92 256 -92 143 -1 255 54 324 158 l31 47 0 -47 c0 -86 40 -136 108
-136 30 0 64 24 81 57 8 15 11 195 11 607 l0 584 -25 30 c-31 37 -76 47 -119
27 -61 -29 -60 -25 -67 -430 -5 -330 -8 -378 -26 -441 -39 -139 -119 -241
-207 -265 -74 -20 -167 3 -212 53 -46 51 -48 67 -54 565 l-5 473 -25 24 c-32
31 -76 39 -118 21z"/>
</g>
</svg>
