<?xml version="1.0" standalone="no"?>
<!DOCTYPE svg PUBLIC "-//W3C//DTD SVG 20010904//EN"
 "http://www.w3.org/TR/2001/REC-SVG-20010904/DTD/svg10.dtd">
<svg version="1.0" xmlns="http://www.w3.org/2000/svg"
 width="1380.000000pt" height="1511.000000pt" viewBox="0 0 1380.000000 1511.000000"
 preserveAspectRatio="xMidYMid meet">

<g transform="translate(0.000000,1511.000000) scale(0.100000,-0.100000)"
fill="#000000" stroke="none">
<path d="M6813 13668 c-15 -56 -71 -120 -127 -146 -24 -12 -74 -24 -110 -28
l-66 -7 0 -78 0 -78 133 -3 132 -3 3 -352 2 -353 105 0 105 0 0 545 0 545 -83
0 -83 0 -11 -42z"/>
<path d="M5920 12289 c-161 -27 -295 -145 -349 -306 -20 -60 -21 -82 -21 -654
l0 -591 -22 8 c-13 5 -441 10 -952 11 -1021 4 -992 5 -1101 -57 -72 -41 -150
-127 -188 -207 l-32 -68 0 -1710 0 -1710 32 -68 c64 -136 195 -234 340 -256
97 -15 6428 -15 6523 -1 94 15 196 68 259 135 72 76 109 160 122 272 6 57 9
475 7 1114 -3 1016 -3 1025 -25 1086 -53 156 -172 270 -319 308 -54 14 -174
15 -990 12 -511 -1 -939 -6 -951 -11 l-23 -8 0 1154 c0 1255 2 1205 -56 1320
-57 113 -191 207 -324 228 -82 12 -1852 11 -1930 -1z m1910 -399 c20 -20 20
-33 20 -2425 l0 -2405 -960 0 -960 0 0 2405 c0 2392 0 2405 20 2425 20 20 33
20 940 20 907 0 920 0 940 -20z m-2299 -1539 c19 -23 19 -63 19 -1657 l0
-1634 -939 0 c-879 0 -940 1 -960 18 l-22 17 3 1615 c2 1268 6 1620 15 1637 7
12 23 24 35 26 13 2 430 4 926 3 l904 -1 19 -24z m4584 -1145 c13 -9 21 -32
26 -72 4 -33 8 -503 8 -1046 1 -975 1 -988 -19 -1008 -20 -20 -33 -20 -960
-20 l-940 0 0 1055 0 1056 25 24 24 25 909 0 c753 0 911 -2 927 -14z"/>
<path d="M4395 12169 c-114 -17 -213 -87 -265 -189 -23 -46 -50 -155 -50 -207
l0 -33 104 0 103 0 6 55 c7 69 40 138 77 165 104 74 250 -3 250 -133 0 -93
-37 -138 -222 -268 -150 -105 -246 -192 -281 -252 -32 -55 -57 -139 -57 -194
l0 -43 390 0 390 0 0 95 0 95 -250 0 c-137 0 -250 4 -250 8 0 18 103 106 220
187 69 48 146 107 172 132 172 167 124 463 -90 554 -36 16 -162 42 -182 38 -3
-1 -32 -5 -65 -10z"/>
<path d="M9266 11159 c-82 -12 -172 -64 -219 -125 -40 -52 -77 -154 -77 -210
l0 -34 99 0 99 0 6 44 c14 91 76 149 158 149 93 0 146 -43 155 -126 10 -87
-46 -139 -165 -153 l-62 -7 0 -73 0 -74 63 0 c126 0 192 -61 184 -172 -6 -103
-86 -166 -197 -156 -85 8 -142 71 -165 181 l-5 27 -102 0 -101 0 6 -59 c20
-226 235 -368 480 -318 43 9 99 26 123 38 58 27 126 96 155 155 27 56 36 170
19 232 -14 53 -75 122 -129 147 l-40 17 46 32 c62 41 87 92 91 184 4 63 1 80
-23 128 -62 127 -229 199 -399 173z"/>
<path d="M8540 4319 c-20 -11 -47 -37 -60 -56 -22 -32 -25 -47 -25 -123 0 -76
3 -91 25 -123 29 -43 91 -77 140 -77 49 0 111 34 140 76 36 54 41 165 10 229
-41 86 -150 121 -230 74z"/>
<path d="M6401 4293 c-19 -10 -44 -31 -55 -46 -21 -28 -21 -34 -24 -1160 -2
-623 0 -1151 3 -1174 7 -50 56 -108 98 -119 38 -9 113 21 135 54 15 23 18 69
22 397 3 237 9 370 15 370 6 -1 134 -153 286 -338 152 -186 296 -358 320 -383
72 -73 206 -122 258 -95 31 17 54 57 46 81 -4 12 -48 70 -98 129 -418 491
-567 672 -567 686 0 21 4 25 335 386 327 356 325 354 325 388 0 62 -80 80
-184 41 -78 -30 -115 -63 -298 -271 -89 -102 -219 -249 -288 -327 -68 -78
-130 -142 -137 -142 -10 0 -13 144 -13 715 0 582 -3 722 -14 748 -26 63 -105
92 -165 60z"/>
<path d="M1595 4264 c-232 -15 -273 -31 -320 -125 l-25 -48 0 -1099 0 -1099
23 -34 c45 -68 124 -84 188 -38 59 42 59 43 59 558 0 455 1 471 19 481 43 23
296 2 370 -31 107 -47 137 -109 247 -507 47 -169 94 -337 104 -373 23 -77 60
-120 127 -145 37 -14 50 -15 84 -5 43 13 79 58 79 100 0 23 -168 598 -216 741
-37 109 -102 236 -140 277 -19 20 -34 37 -34 39 0 1 26 18 58 38 123 75 194
159 247 291 63 159 71 421 18 590 -69 220 -249 356 -512 384 -153 17 -193 18
-376 5z m305 -235 c132 -19 250 -93 300 -189 49 -94 65 -264 39 -405 -45 -246
-199 -335 -574 -335 -66 0 -126 4 -133 8 -10 7 -12 104 -10 453 l3 444 27 13
c28 13 179 29 238 24 19 -1 69 -7 110 -13z"/>
<path d="M3370 3556 c-159 -23 -300 -65 -338 -100 -57 -52 -70 -139 -27 -181
30 -31 53 -31 143 -1 261 89 524 94 634 13 56 -42 98 -170 98 -304 0 -40 -4
-55 -17 -61 -10 -5 -101 -12 -203 -15 -107 -4 -212 -12 -250 -21 -159 -36
-300 -112 -379 -203 -49 -56 -103 -165 -122 -243 -17 -72 -17 -251 0 -320 33
-132 122 -250 233 -306 164 -83 412 -68 561 34 50 35 125 114 152 160 11 17
22 32 26 32 4 0 9 -37 10 -82 3 -67 8 -89 27 -115 47 -66 152 -66 193 1 18 30
19 57 19 626 0 635 -5 724 -50 841 -66 172 -205 245 -485 254 -81 3 -166 -1
-225 -9z m486 -846 l27 -11 -6 -127 c-8 -156 -27 -245 -71 -337 -58 -122 -138
-195 -254 -234 -156 -53 -312 0 -376 126 -25 50 -38 159 -27 234 30 212 184
329 461 349 160 11 216 11 246 0z"/>
<path d="M5235 3558 c-119 -22 -283 -134 -337 -229 -12 -21 -25 -39 -30 -39
-4 0 -8 19 -9 43 -1 82 -15 137 -43 166 -51 54 -136 47 -184 -14 l-22 -28 0
-789 0 -789 38 -40 c45 -48 92 -59 145 -34 74 35 71 14 78 550 5 478 6 480 32
577 49 183 137 312 252 369 61 30 69 31 152 27 177 -9 247 -83 273 -290 6 -48
10 -307 10 -618 0 -513 1 -536 20 -567 49 -80 163 -84 216 -6 18 27 19 55 19
623 -1 518 -3 607 -18 687 -44 238 -146 356 -342 398 -78 16 -174 18 -250 3z"/>
<path d="M10275 3558 c-119 -22 -283 -134 -337 -229 -12 -21 -25 -39 -30 -39
-4 0 -8 19 -9 43 -1 82 -15 137 -43 166 -51 54 -136 47 -184 -14 l-22 -28 0
-789 0 -789 38 -40 c45 -48 92 -59 145 -34 74 35 71 14 78 550 5 478 6 480 32
577 49 183 137 312 252 369 61 30 69 31 152 27 177 -9 247 -83 273 -290 6 -48
10 -307 10 -618 0 -513 1 -536 20 -567 49 -80 163 -84 216 -6 18 27 19 55 19
623 -1 518 -3 607 -18 687 -44 238 -146 356 -342 398 -78 16 -174 18 -250 3z"/>
<path d="M11711 3555 c-298 -67 -451 -369 -451 -885 0 -431 127 -719 365 -831
111 -53 232 -62 353 -29 118 33 209 101 281 210 36 55 36 55 40 25 1 -16 1
-120 -1 -230 -5 -183 -7 -207 -31 -280 -51 -153 -121 -226 -252 -266 -99 -30
-248 -23 -395 20 -58 17 -115 31 -126 31 -29 0 -70 -34 -78 -65 -14 -57 33
-148 93 -179 93 -48 460 -68 596 -33 284 75 418 254 455 607 5 55 10 451 10
933 0 689 -2 843 -14 871 -20 48 -61 76 -110 76 -87 -1 -126 -49 -126 -157 0
-39 -4 -74 -8 -77 -5 -3 -34 26 -65 65 -68 82 -155 149 -235 180 -74 28 -212
34 -301 14z m330 -269 c105 -49 184 -160 231 -323 21 -70 23 -99 23 -298 0
-202 -2 -226 -24 -300 -31 -105 -71 -174 -134 -231 -62 -56 -86 -68 -159 -84
-191 -39 -363 93 -423 325 -25 96 -36 283 -25 430 22 290 102 438 270 499 66
24 170 16 241 -18z"/>
<path d="M8241 3530 c-55 -13 -86 -52 -85 -106 1 -37 7 -51 33 -77 l31 -32
138 -3 c75 -2 143 -8 149 -14 19 -15 19 -1251 1 -1266 -8 -6 -92 -12 -200 -14
l-188 -3 -31 -32 c-26 -25 -32 -40 -33 -76 -1 -51 20 -82 71 -103 41 -18 905
-20 950 -3 51 19 73 48 73 96 0 47 -20 87 -54 106 -12 6 -82 14 -161 17 l-140
5 -5 691 -5 690 -28 43 c-49 73 -89 85 -302 88 -99 1 -195 -2 -214 -7z"/>
</g>
</svg>
