<?xml version="1.0" standalone="no"?>
<!DOCTYPE svg PUBLIC "-//W3C//DTD SVG 20010904//EN"
 "http://www.w3.org/TR/2001/REC-SVG-20010904/DTD/svg10.dtd">
<svg version="1.0" xmlns="http://www.w3.org/2000/svg"
 width="1517.000000pt" height="1360.000000pt" viewBox="0 0 1517.000000 1360.000000"
 preserveAspectRatio="xMidYMid meet">

<g transform="translate(0.000000,1360.000000) scale(0.100000,-0.100000)"
fill="#000000" stroke="none">
<path d="M6845 13349 c-43 -12 -102 -65 -126 -111 -16 -31 -33 -139 -80 -511
-32 -260 -59 -475 -59 -479 0 -5 -69 -41 -152 -81 -165 -79 -292 -154 -429
-253 l-87 -63 -438 187 c-430 183 -440 187 -510 187 -61 0 -77 -4 -119 -30
-47 -29 -60 -50 -392 -625 -189 -327 -357 -622 -373 -654 -40 -79 -41 -142 -2
-216 25 -51 52 -73 412 -347 348 -265 385 -296 384 -320 -1 -16 -7 -102 -14
-191 -9 -128 -9 -202 0 -335 7 -95 13 -183 13 -196 2 -20 -53 -66 -363 -303
-201 -154 -378 -291 -394 -306 -67 -63 -84 -168 -42 -257 38 -81 706 -1238
728 -1262 36 -38 105 -66 164 -66 47 0 107 23 500 188 308 130 450 186 459
179 142 -102 347 -227 482 -294 92 -46 169 -84 170 -85 1 0 29 -215 61 -476
42 -339 64 -484 77 -509 24 -48 63 -88 110 -113 40 -22 44 -22 755 -25 481 -2
731 1 765 8 64 14 120 53 151 105 28 49 34 87 100 625 l47 385 166 82 c167 82
279 149 418 249 42 30 80 54 84 54 4 0 207 -84 450 -186 384 -162 450 -187
495 -187 65 0 137 34 175 83 31 40 714 1225 730 1267 20 53 14 127 -16 180
-24 45 -71 84 -414 346 l-387 296 13 123 c15 156 15 357 0 520 l-12 127 379
288 c208 158 390 303 404 321 35 46 52 118 41 175 -6 34 -109 221 -370 675
-198 345 -368 636 -378 646 -9 10 -38 29 -66 42 -96 46 -101 45 -599 -166
l-448 -189 -57 43 c-137 105 -337 222 -532 309 l-75 34 -58 464 c-31 255 -64
485 -72 511 -17 52 -74 111 -130 134 -28 12 -159 14 -771 13 -406 0 -751 -5
-768 -10z m1255 -456 c1 -66 113 -880 125 -909 32 -78 70 -104 246 -175 209
-83 416 -204 594 -349 174 -142 161 -143 675 75 217 92 401 168 408 169 8 0
120 -184 256 -419 l243 -420 -61 -47 c-34 -25 -194 -147 -356 -270 -204 -155
-304 -238 -324 -267 -39 -58 -44 -134 -20 -272 25 -142 26 -528 1 -669 -29
-164 -20 -234 38 -299 19 -21 188 -154 375 -296 187 -142 340 -262 340 -267 0
-18 -483 -847 -491 -843 -41 26 -824 347 -855 352 -65 9 -129 -19 -226 -97
-198 -159 -369 -260 -610 -361 -77 -31 -150 -65 -164 -73 -36 -24 -70 -84 -83
-146 -9 -42 -111 -837 -111 -864 0 -3 -220 -6 -488 -6 l-488 0 -53 428 c-29
235 -59 448 -67 474 -26 81 -73 121 -204 174 -250 100 -450 215 -637 367 -46
36 -96 73 -113 82 -44 23 -112 29 -156 15 -22 -7 -214 -87 -429 -177 -214 -91
-393 -165 -397 -166 -9 -2 -490 833 -486 844 2 4 164 130 361 279 328 249 360
276 384 323 31 61 33 120 9 267 -34 204 -32 418 8 713 18 135 7 187 -57 252
-23 24 -192 157 -375 295 -183 139 -331 257 -329 264 7 17 468 820 476 829 4
4 189 -70 412 -164 333 -141 415 -172 466 -176 75 -7 118 11 213 90 162 135
349 249 545 332 195 83 218 94 247 120 61 53 66 75 126 550 l56 445 488 0
c268 0 488 -3 488 -7z"/>
<path d="M7475 11046 c-144 -16 -220 -33 -341 -79 -193 -74 -342 -169 -488
-311 -234 -228 -369 -516 -407 -864 -18 -175 8 -387 72 -573 143 -419 495
-749 929 -874 314 -90 601 -71 910 59 426 180 733 565 816 1023 68 380 -22
760 -257 1080 -59 80 -194 212 -288 282 -185 137 -447 238 -661 256 -41 3 -95
7 -120 9 -25 2 -99 -2 -165 -8z m270 -460 c205 -32 371 -115 512 -258 225
-226 318 -535 254 -843 -75 -362 -346 -633 -714 -712 -119 -26 -316 -23 -422
6 -467 127 -761 601 -666 1074 66 326 298 591 611 696 141 47 279 59 425 37z"/>
<path d="M8495 3716 c-67 -30 -105 -101 -105 -196 0 -130 69 -210 180 -210 70
0 117 24 151 79 26 40 29 53 29 131 0 76 -3 91 -27 127 -14 23 -43 51 -63 62
-44 24 -119 27 -165 7z"/>
<path d="M1245 3651 c-211 -28 -388 -147 -475 -321 -52 -104 -64 -163 -65
-315 0 -147 9 -203 51 -307 78 -190 215 -314 529 -478 228 -120 296 -170 358
-263 47 -71 65 -123 78 -233 28 -220 -48 -400 -197 -465 -54 -25 -186 -40
-268 -33 -123 12 -237 53 -361 131 -82 51 -120 55 -155 18 -29 -31 -30 -90 -4
-168 30 -89 125 -157 291 -206 137 -41 376 -44 528 -8 177 43 325 156 395 302
51 107 64 176 65 335 0 161 -12 236 -56 350 -34 87 -66 139 -130 206 -105 113
-196 173 -467 309 -140 70 -183 97 -231 143 -102 100 -146 224 -139 387 5 115
38 194 110 261 79 73 143 98 267 102 148 5 282 -24 413 -89 61 -31 103 -36
129 -16 30 23 40 56 33 105 -19 129 -74 178 -256 227 -103 28 -329 41 -443 26z"/>
<path d="M4693 3460 c-65 -39 -68 -54 -71 -365 -3 -199 -7 -282 -15 -287 -7
-4 -65 -8 -130 -8 -132 0 -167 -11 -192 -60 -26 -50 -19 -95 19 -138 l34 -37
135 -5 c75 -3 138 -8 142 -11 3 -4 5 -226 5 -495 0 -672 13 -801 93 -920 69
-104 216 -154 453 -154 230 0 286 16 331 96 30 52 29 95 -3 133 -30 36 -53 39
-164 15 -110 -23 -237 -14 -309 23 -61 32 -85 67 -101 152 -15 81 -14 1133 2
1149 9 9 84 12 277 12 241 0 269 2 294 18 15 10 34 27 42 38 19 25 19 104 -1
132 -34 49 -55 52 -326 52 -139 0 -263 3 -275 6 -21 6 -21 8 -25 292 -3 282
-3 288 -26 320 -45 62 -126 81 -189 42z"/>
<path d="M6505 3470 c-27 -11 -61 -49 -74 -83 -7 -18 -11 -131 -11 -297 0
-204 -3 -271 -12 -277 -7 -4 -72 -10 -145 -13 -122 -5 -133 -7 -157 -29 -41
-38 -52 -90 -30 -136 29 -63 61 -75 195 -75 77 0 121 -4 132 -12 15 -12 16
-70 20 -613 4 -651 4 -650 62 -765 72 -143 223 -196 530 -188 94 3 182 10 198
16 86 36 129 161 72 217 -29 30 -60 31 -165 9 -80 -17 -201 -14 -273 6 -53 16
-102 62 -123 118 -16 43 -18 100 -22 617 -3 534 -2 570 14 582 13 10 82 13
278 13 243 0 263 1 294 20 69 42 79 130 21 186 l-30 29 -280 5 c-234 4 -281 7
-289 20 -6 8 -10 131 -10 280 0 232 -2 269 -18 300 -32 65 -113 97 -177 70z"/>
<path d="M2990 2895 c-320 -69 -477 -265 -535 -670 -31 -216 -15 -541 36 -725
69 -250 226 -420 449 -488 91 -28 240 -44 330 -37 91 8 284 42 325 57 118 44
155 223 52 257 -27 9 -47 7 -118 -14 -250 -72 -405 -72 -549 0 -94 48 -178
169 -215 310 -24 94 -38 235 -24 251 9 12 88 14 443 14 285 0 445 4 471 11 52
15 119 82 134 134 7 27 8 75 1 159 -19 239 -62 392 -145 515 -71 108 -143 162
-278 208 -91 31 -276 40 -377 18z m279 -252 c96 -31 179 -136 215 -276 8 -32
20 -103 26 -159 11 -94 10 -103 -6 -115 -14 -10 -100 -13 -380 -13 -416 0
-396 -4 -388 83 34 342 157 494 403 496 45 1 96 -6 130 -16z"/>
<path d="M10333 2896 c-76 -18 -179 -68 -238 -117 -51 -42 -112 -113 -128
-146 -6 -13 -13 -23 -17 -23 -4 0 -12 44 -17 97 -10 93 -12 98 -47 130 -30 28
-43 33 -85 33 -34 0 -56 -6 -75 -21 -59 -46 -56 -4 -56 -907 l0 -829 23 -34
c43 -65 124 -86 184 -49 70 42 67 19 74 580 5 419 9 517 22 575 41 172 90 271
180 363 87 89 172 117 300 101 165 -21 230 -100 256 -316 7 -54 11 -307 11
-651 0 -614 -1 -604 57 -646 39 -28 111 -32 150 -7 67 42 64 10 61 749 -4 655
-4 668 -26 747 -59 210 -140 305 -305 357 -82 26 -242 32 -324 14z"/>
<path d="M11865 2892 c-108 -28 -163 -59 -240 -136 -131 -132 -198 -311 -225
-606 -13 -145 -13 -260 0 -391 28 -280 98 -460 232 -592 142 -141 334 -190
528 -136 129 36 238 119 307 236 13 24 29 43 34 43 14 0 10 -314 -6 -430 -26
-197 -80 -305 -189 -379 -118 -81 -317 -90 -535 -26 -112 33 -160 33 -192 -1
-50 -53 -14 -173 66 -219 49 -29 121 -43 288 -59 170 -15 292 -5 420 36 237
74 353 219 414 514 14 69 17 201 20 1041 4 947 4 964 -16 1008 -44 100 -182
100 -231 1 -14 -31 -20 -62 -20 -114 0 -40 -4 -72 -9 -72 -4 0 -20 17 -33 38
-66 97 -196 200 -303 237 -73 26 -222 29 -310 7z m365 -286 c111 -57 196 -176
239 -335 32 -116 46 -309 32 -456 -21 -218 -70 -346 -170 -437 -83 -76 -126
-93 -241 -92 -87 0 -100 2 -155 31 -95 49 -170 140 -210 253 -42 119 -61 329
-45 520 12 152 31 243 65 318 53 116 102 166 204 209 80 34 202 29 281 -11z"/>
<path d="M13752 2899 c-287 -37 -457 -218 -456 -484 1 -304 146 -448 584 -580
229 -69 315 -120 357 -213 22 -46 25 -64 21 -142 -3 -79 -6 -93 -33 -131 -67
-96 -166 -133 -350 -133 -137 0 -234 21 -369 79 -153 66 -212 37 -186 -90 19
-92 65 -131 203 -174 196 -60 450 -71 620 -27 269 70 399 229 401 491 1 163
-37 274 -121 359 -64 64 -222 141 -411 201 -251 79 -317 110 -376 175 -41 46
-57 98 -57 185 0 161 97 244 298 253 130 6 238 -10 366 -55 141 -49 169 -51
201 -19 53 52 20 179 -58 222 -124 69 -432 109 -634 83z"/>
<path d="M8134 2854 c-70 -34 -82 -130 -23 -185 36 -33 65 -39 204 -39 63 0
120 -3 129 -6 14 -6 16 -75 16 -678 0 -509 -3 -675 -12 -684 -8 -8 -67 -12
-200 -12 -206 0 -229 -5 -263 -56 -22 -34 -23 -95 -2 -127 37 -57 42 -57 574
-57 480 0 489 0 523 21 19 12 40 29 47 38 17 22 16 86 -2 121 -26 51 -58 60
-214 60 -128 0 -141 2 -151 19 -7 13 -10 261 -10 736 0 691 -1 717 -20 754
-24 48 -70 87 -118 101 -20 5 -129 10 -242 10 -162 0 -211 -4 -236 -16z"/>
</g>
</svg>
