<?xml version="1.0" standalone="no"?>
<!DOCTYPE svg PUBLIC "-//W3C//DTD SVG 20010904//EN"
 "http://www.w3.org/TR/2001/REC-SVG-20010904/DTD/svg10.dtd">
<svg version="1.0" xmlns="http://www.w3.org/2000/svg"
 width="1476.000000pt" height="1511.000000pt" viewBox="0 0 1476.000000 1511.000000"
 preserveAspectRatio="xMidYMid meet">

<g transform="translate(0.000000,1511.000000) scale(0.100000,-0.100000)"
fill="#000000" stroke="none">
<path d="M7180 13899 c-835 -84 -1541 -692 -1745 -1503 -156 -620 -20 -1254
375 -1751 110 -137 255 -277 388 -373 23 -17 39 -33 35 -35 -4 -3 -53 -22
-108 -42 -266 -99 -585 -277 -840 -468 -257 -193 -556 -501 -745 -767 -152
-213 -327 -543 -419 -792 -85 -227 -153 -500 -185 -738 -15 -111 -36 -366 -36
-442 l0 -38 269 0 269 0 6 88 c27 403 68 614 178 917 321 890 1082 1587 1997
1831 257 69 480 97 761 97 281 0 504 -28 761 -97 915 -244 1676 -941 1997
-1831 107 -293 156 -544 178 -892 l7 -113 268 0 269 0 0 38 c0 76 -21 331 -36
442 -32 238 -100 511 -185 738 -92 249 -267 579 -419 792 -189 266 -488 574
-745 767 -255 191 -574 369 -840 468 -55 20 -104 39 -108 42 -4 2 12 18 35 35
68 49 218 180 274 239 298 317 490 726 538 1149 30 257 15 482 -49 736 -240
956 -1162 1602 -2145 1503z m450 -555 c389 -60 771 -316 993 -667 208 -327
275 -741 182 -1124 -118 -486 -479 -882 -956 -1046 -157 -54 -268 -71 -469
-71 -201 0 -312 17 -469 71 -415 143 -753 470 -907 880 -115 304 -119 673 -12
988 78 229 218 441 401 606 347 312 765 435 1237 363z"/>
<path d="M4265 4446 c-66 -29 -95 -84 -95 -178 0 -110 59 -178 155 -178 59 0
98 20 130 67 34 51 36 165 3 224 -37 66 -124 95 -193 65z"/>
<path d="M2655 4390 c-136 -16 -254 -71 -341 -158 -102 -102 -148 -223 -148
-392 -1 -161 28 -265 105 -381 74 -110 184 -194 414 -314 202 -105 277 -169
328 -276 63 -135 50 -382 -25 -469 -70 -81 -153 -113 -295 -112 -119 1 -225
33 -344 103 -90 53 -112 58 -147 33 -27 -19 -30 -87 -6 -157 41 -120 239 -202
489 -202 146 0 229 14 323 56 144 65 229 164 279 324 25 83 25 321 -1 415 -26
97 -69 180 -128 246 -96 108 -173 161 -428 289 -114 58 -156 85 -197 127 -64
65 -99 140 -113 241 -25 176 36 304 177 374 54 26 66 28 183 28 133 0 202 -16
314 -72 101 -51 152 -29 149 63 -5 139 -117 208 -379 234 -109 10 -122 10
-209 0z"/>
<path d="M5630 3727 c-171 -39 -298 -174 -358 -382 -75 -258 -70 -651 11 -883
56 -162 168 -288 299 -337 219 -81 455 -5 565 182 14 24 29 43 34 43 12 0 11
-271 -1 -367 -29 -214 -111 -333 -261 -378 -81 -25 -252 -16 -368 19 -111 34
-144 34 -170 0 -54 -69 1 -180 104 -209 92 -27 310 -45 410 -33 287 32 435
157 507 431 22 81 22 97 25 939 4 958 7 915 -63 944 -49 21 -93 11 -129 -26
-26 -27 -30 -39 -35 -113 l-5 -82 -20 25 c-65 81 -165 169 -228 200 -60 29
-79 33 -165 36 -55 2 -121 -2 -152 -9z m313 -247 c64 -30 131 -101 167 -175
106 -217 103 -614 -6 -809 -102 -183 -333 -225 -484 -89 -124 111 -178 339
-152 636 23 258 93 390 236 447 67 27 171 22 239 -10z"/>
<path d="M7435 3733 c-140 -30 -280 -127 -334 -230 -20 -40 -31 -25 -31 43 0
40 -6 79 -16 100 -28 59 -95 80 -154 49 -62 -32 -60 -4 -60 -792 0 -703 1
-719 20 -751 20 -32 71 -62 106 -62 30 0 85 33 98 59 11 20 15 121 19 456 5
462 9 499 62 641 14 38 49 101 78 139 70 94 146 135 247 135 79 0 165 -27 197
-63 75 -82 82 -146 83 -750 0 -560 0 -559 62 -597 39 -24 78 -25 118 -5 61 31
60 23 60 604 0 325 -4 560 -11 607 -33 242 -128 367 -310 408 -63 15 -187 20
-234 9z"/>
<path d="M12028 3721 c-31 -10 -76 -30 -100 -44 -48 -28 -141 -117 -166 -159
-31 -52 -42 -44 -42 33 0 79 -16 116 -60 143 -52 30 -120 13 -154 -38 -15 -23
-16 -118 -16 -1093 0 -1017 1 -1069 18 -1096 28 -42 53 -56 97 -56 49 0 80 16
106 55 18 27 19 51 19 442 0 226 3 412 8 412 4 -1 23 -26 42 -57 49 -78 133
-145 217 -174 93 -32 241 -32 325 0 121 46 233 159 292 292 64 146 91 338 83
593 -12 385 -108 615 -298 711 -110 56 -262 71 -371 36z m203 -243 c123 -56
182 -164 214 -387 41 -286 -9 -561 -125 -694 -59 -66 -136 -101 -225 -101
-225 0 -365 236 -365 614 0 305 109 529 284 586 58 20 153 11 217 -18z"/>
<path d="M3954 3700 c-28 -11 -64 -58 -64 -82 0 -33 27 -86 52 -100 14 -8 72
-15 153 -18 l130 -5 3 -589 c2 -465 0 -591 -10 -598 -7 -4 -89 -8 -181 -8
l-169 0 -34 -34 c-56 -56 -42 -131 32 -162 44 -18 852 -21 887 -3 48 25 67 51
67 93 -1 44 -11 62 -50 89 -20 14 -48 17 -147 17 -111 0 -123 2 -133 19 -6 13
-10 232 -10 641 0 668 2 647 -52 697 -49 46 -85 53 -275 52 -98 0 -188 -4
-199 -9z"/>
<path d="M10011 3697 c-13 -6 -34 -25 -45 -40 -21 -28 -21 -35 -21 -595 0
-511 2 -575 18 -652 33 -151 98 -254 191 -302 51 -26 156 -48 236 -48 167 0
346 100 408 228 9 17 19 32 24 32 4 0 8 -27 8 -60 0 -111 40 -165 122 -165 43
0 53 4 79 33 l29 32 0 730 c0 449 -4 739 -10 754 -12 33 -66 66 -105 66 -16 0
-44 -9 -62 -20 -63 -38 -63 -39 -63 -462 0 -217 -5 -422 -11 -473 -28 -230
-135 -414 -266 -459 -101 -34 -233 -7 -292 59 -62 71 -71 164 -71 773 0 421
-2 497 -15 522 -27 53 -100 75 -154 47z"/>
</g>
</svg>
